<svg xmlns="http://www.w3.org/2000/svg" xmlns:xlink="http://www.w3.org/1999/xlink" width="220" zoomAndPan="magnify" viewBox="0 0 165 44.999999" height="60" preserveAspectRatio="xMidYMid meet" version="1.2"><defs><clipPath id="4d3cd5dd86"><path d="M 46.609375 32.597656 L 51 32.597656 L 51 37.847656 L 46.609375 37.847656 Z M 46.609375 32.597656 "/></clipPath></defs><g id="b95d943001"><g clip-rule="nonzero" clip-path="url(#4d3cd5dd86)"><path style=" stroke:none;fill-rule:nonzero;fill:#ffffff;fill-opacity:1;" d="M 48.664062 32.597656 C 49.011719 34.125 49.191406 34.878906 50.722656 35.222656 C 49.191406 35.566406 49.011719 36.320312 48.664062 37.847656 C 48.320312 36.320312 48.140625 35.566406 46.609375 35.222656 C 48.140625 34.878906 48.320312 34.125 48.664062 32.597656 Z M 48.664062 32.597656 "/></g><g style="fill:#000000;fill-opacity:1;"><g transform="translate(4.548297, 23.577083)"><path style="stroke:none" d="M 8.5625 -17.671875 L 7.40625 -17.671875 C 7.375 -17.671875 7.347656 -17.671875 7.328125 -17.671875 L 7.328125 -1.96875 C 7.347656 -1.5 7.519531 -1.097656 7.84375 -0.765625 C 8.175781 -0.429688 8.578125 -0.265625 9.046875 -0.265625 L 9.40625 -0.265625 L 9.40625 0 L 1.21875 0 L 1.21875 -0.265625 L 1.5625 -0.265625 C 2.207031 -0.265625 2.703125 -0.546875 3.046875 -1.109375 C 3.191406 -1.359375 3.269531 -1.632812 3.28125 -1.9375 L 3.28125 -16.890625 C 3.269531 -17.359375 3.097656 -17.757812 2.765625 -18.09375 C 2.429688 -18.425781 2.03125 -18.59375 1.5625 -18.59375 L 1.21875 -18.59375 L 1.21875 -18.859375 L 10.453125 -18.859375 C 12.191406 -18.859375 13.664062 -18.476562 14.875 -17.71875 C 15.476562 -17.34375 15.957031 -16.816406 16.3125 -16.140625 C 16.675781 -15.472656 16.859375 -14.59375 16.859375 -13.5 C 16.859375 -12.414062 16.476562 -11.367188 15.71875 -10.359375 C 14.96875 -9.359375 13.875 -8.785156 12.4375 -8.640625 C 13.476562 -8.304688 14.394531 -7.519531 15.1875 -6.28125 C 17.132812 -3.164062 18.570312 -1.316406 19.5 -0.734375 C 19.96875 -0.441406 20.550781 -0.285156 21.25 -0.265625 L 21.25 0 L 18.609375 0 C 17.046875 0 15.75 -0.203125 14.71875 -0.609375 C 13.6875 -1.023438 12.875 -1.753906 12.28125 -2.796875 C 11.9375 -3.390625 11.191406 -4.925781 10.046875 -7.40625 C 9.546875 -8.5 8.9375 -9.101562 8.21875 -9.21875 L 8.21875 -9.484375 L 9.046875 -9.484375 C 9.859375 -9.484375 10.570312 -9.722656 11.1875 -10.203125 C 11.8125 -10.691406 12.226562 -11.484375 12.4375 -12.578125 C 12.507812 -12.953125 12.546875 -13.25 12.546875 -13.46875 C 12.546875 -14.9375 12.25 -16 11.65625 -16.65625 C 11.070312 -17.3125 10.3125 -17.648438 9.375 -17.671875 C 9.195312 -17.671875 8.925781 -17.671875 8.5625 -17.671875 Z M 8.5625 -17.671875 "/></g></g><g style="fill:#000000;fill-opacity:1;"><g transform="translate(24.668565, 23.577083)"><path style="stroke:none" d="M 1.484375 -0.265625 C 1.953125 -0.265625 2.347656 -0.429688 2.671875 -0.765625 C 3.003906 -1.097656 3.179688 -1.5 3.203125 -1.96875 L 3.203125 -16.96875 C 3.171875 -17.4375 3.035156 -17.78125 2.796875 -18 C 2.367188 -18.394531 1.929688 -18.59375 1.484375 -18.59375 L 1.125 -18.59375 L 1.125 -18.859375 L 11.453125 -18.859375 C 12.328125 -18.859375 13.050781 -18.925781 13.625 -19.0625 C 14.207031 -19.195312 14.5625 -19.289062 14.6875 -19.34375 L 14.6875 -14.625 L 14.40625 -14.65625 L 14.40625 -14.953125 C 14.40625 -16.066406 13.992188 -16.859375 13.171875 -17.328125 C 12.773438 -17.554688 12.304688 -17.679688 11.765625 -17.703125 L 7.25 -17.703125 L 7.25 -9.859375 L 10.796875 -9.859375 C 11.460938 -9.878906 12.007812 -10.109375 12.4375 -10.546875 C 12.875 -10.984375 13.09375 -11.523438 13.09375 -12.171875 L 13.09375 -12.421875 L 13.359375 -12.421875 L 13.359375 -6.203125 L 13.09375 -6.203125 L 13.09375 -6.40625 C 13.09375 -7.070312 12.878906 -7.617188 12.453125 -8.046875 C 12.035156 -8.484375 11.503906 -8.710938 10.859375 -8.734375 L 7.25 -8.734375 L 7.25 -1.15625 L 10.78125 -1.15625 C 12.082031 -1.15625 13.175781 -1.53125 14.0625 -2.28125 C 14.957031 -3.039062 15.625 -4.113281 16.0625 -5.5 L 16.328125 -5.5 L 15.078125 0 L 1.125 0 L 1.125 -0.265625 Z M 1.484375 -0.265625 "/></g></g><g style="fill:#000000;fill-opacity:1;"><g transform="translate(41.664399, 23.577083)"><path style="stroke:none" d="M 25.515625 -0.265625 L 25.9375 -0.265625 L 25.9375 0 L 17.859375 0 L 17.859375 -0.25 L 18.265625 -0.25 C 18.566406 -0.257812 18.828125 -0.378906 19.046875 -0.609375 C 19.265625 -0.847656 19.351562 -1.113281 19.3125 -1.40625 L 18.265625 -11.171875 L 13.203125 -2.453125 C 12.535156 -1.335938 12.191406 -0.34375 12.171875 0.53125 L 11.90625 0.53125 L 4.984375 -11.09375 L 3.9375 -1.40625 C 3.894531 -1.113281 3.984375 -0.847656 4.203125 -0.609375 C 4.421875 -0.367188 4.679688 -0.25 4.984375 -0.25 L 5.390625 -0.25 L 5.390625 0 L -0.25 0 L -0.25 -0.265625 L 0.1875 -0.265625 C 0.6875 -0.265625 1.117188 -0.414062 1.484375 -0.71875 C 1.859375 -1.03125 2.082031 -1.445312 2.15625 -1.96875 L 4.390625 -19.234375 L 4.640625 -19.234375 L 12.984375 -5.5 L 21.015625 -19.234375 L 21.25 -19.234375 L 23.546875 -1.96875 C 23.628906 -1.445312 23.851562 -1.03125 24.21875 -0.71875 C 24.59375 -0.414062 25.023438 -0.265625 25.515625 -0.265625 Z M 25.515625 -0.265625 "/></g></g><g style="fill:#000000;fill-opacity:1;"><g transform="translate(67.333229, 23.577083)"><path style="stroke:none" d="M 1.484375 -0.265625 C 1.953125 -0.265625 2.347656 -0.429688 2.671875 -0.765625 C 3.003906 -1.097656 3.179688 -1.5 3.203125 -1.96875 L 3.203125 -16.921875 C 3.179688 -17.378906 3.003906 -17.769531 2.671875 -18.09375 C 2.347656 -18.425781 1.953125 -18.59375 1.484375 -18.59375 L 1.125 -18.59375 L 1.125 -18.859375 L 9.328125 -18.859375 L 9.296875 -18.59375 L 8.96875 -18.59375 C 8.5 -18.59375 8.09375 -18.425781 7.75 -18.09375 C 7.414062 -17.769531 7.25 -17.378906 7.25 -16.921875 L 7.25 -1.96875 C 7.25 -1.5 7.414062 -1.097656 7.75 -0.765625 C 8.09375 -0.429688 8.5 -0.265625 8.96875 -0.265625 L 9.296875 -0.265625 L 9.328125 0 L 1.125 0 L 1.125 -0.265625 Z M 1.484375 -0.265625 "/></g></g><g style="fill:#000000;fill-opacity:1;"><g transform="translate(77.730049, 23.577083)"><path style="stroke:none" d="M 22.015625 -18.59375 C 21.378906 -18.59375 20.898438 -18.320312 20.578125 -17.78125 C 20.429688 -17.539062 20.351562 -17.269531 20.34375 -16.96875 L 20.34375 -3.078125 C 20.34375 -1.867188 20.421875 -0.851562 20.578125 -0.03125 L 20.65625 0.375 L 20.421875 0.375 L 6.8125 -12.578125 L 6.8125 -1.890625 C 6.8125 -1.441406 6.972656 -1.054688 7.296875 -0.734375 C 7.617188 -0.421875 8.003906 -0.265625 8.453125 -0.265625 L 8.96875 -0.265625 L 8.96875 0 L 0.8125 0 L 0.8125 -0.265625 L 1.296875 -0.265625 C 1.765625 -0.265625 2.160156 -0.421875 2.484375 -0.734375 C 2.804688 -1.054688 2.96875 -1.445312 2.96875 -1.90625 L 2.96875 -15.890625 C 2.96875 -17.078125 2.882812 -18.066406 2.71875 -18.859375 L 2.671875 -19.265625 L 2.90625 -19.265625 L 16.515625 -6.296875 L 16.515625 -16.9375 C 16.492188 -17.40625 16.320312 -17.796875 16 -18.109375 C 15.675781 -18.429688 15.289062 -18.59375 14.84375 -18.59375 L 14.359375 -18.59375 L 14.359375 -18.859375 L 22.515625 -18.859375 L 22.515625 -18.59375 Z M 22.015625 -18.59375 "/></g></g><g style="fill:#000000;fill-opacity:1;"><g transform="translate(101.028621, 23.577083)"><path style="stroke:none" d="M 10.90625 -18.859375 C 14.082031 -18.859375 16.597656 -18.015625 18.453125 -16.328125 C 20.304688 -14.640625 21.234375 -12.335938 21.234375 -9.421875 C 21.234375 -6.515625 20.304688 -4.21875 18.453125 -2.53125 C 16.597656 -0.84375 14.082031 0 10.90625 0 L 1.125 0 L 1.125 -0.265625 L 1.484375 -0.265625 C 1.953125 -0.265625 2.347656 -0.429688 2.671875 -0.765625 C 3.003906 -1.097656 3.179688 -1.5 3.203125 -1.96875 L 3.203125 -17.046875 C 3.203125 -17.484375 3.023438 -17.847656 2.671875 -18.140625 C 2.328125 -18.441406 1.929688 -18.59375 1.484375 -18.59375 L 1.125 -18.59375 L 1.125 -18.859375 Z M 10.5625 -1.15625 C 11.851562 -1.15625 12.96875 -1.488281 13.90625 -2.15625 C 14.851562 -2.820312 15.578125 -3.773438 16.078125 -5.015625 C 16.578125 -6.265625 16.828125 -7.625 16.828125 -9.09375 C 16.828125 -10.570312 16.679688 -11.828125 16.390625 -12.859375 C 16.097656 -13.890625 15.679688 -14.765625 15.140625 -15.484375 C 14.023438 -16.972656 12.5 -17.71875 10.5625 -17.71875 L 7.25 -17.71875 L 7.25 -1.15625 Z M 10.5625 -1.15625 "/></g></g><g style="fill:#000000;fill-opacity:1;"><g transform="translate(123.330603, 23.577083)"><path style="stroke:none" d="M 1.484375 -0.265625 C 1.953125 -0.265625 2.347656 -0.429688 2.671875 -0.765625 C 3.003906 -1.097656 3.179688 -1.5 3.203125 -1.96875 L 3.203125 -16.96875 C 3.171875 -17.4375 3.035156 -17.78125 2.796875 -18 C 2.367188 -18.394531 1.929688 -18.59375 1.484375 -18.59375 L 1.125 -18.59375 L 1.125 -18.859375 L 11.453125 -18.859375 C 12.328125 -18.859375 13.050781 -18.925781 13.625 -19.0625 C 14.207031 -19.195312 14.5625 -19.289062 14.6875 -19.34375 L 14.6875 -14.625 L 14.40625 -14.65625 L 14.40625 -14.953125 C 14.40625 -16.066406 13.992188 -16.859375 13.171875 -17.328125 C 12.773438 -17.554688 12.304688 -17.679688 11.765625 -17.703125 L 7.25 -17.703125 L 7.25 -9.859375 L 10.796875 -9.859375 C 11.460938 -9.878906 12.007812 -10.109375 12.4375 -10.546875 C 12.875 -10.984375 13.09375 -11.523438 13.09375 -12.171875 L 13.09375 -12.421875 L 13.359375 -12.421875 L 13.359375 -6.203125 L 13.09375 -6.203125 L 13.09375 -6.40625 C 13.09375 -7.070312 12.878906 -7.617188 12.453125 -8.046875 C 12.035156 -8.484375 11.503906 -8.710938 10.859375 -8.734375 L 7.25 -8.734375 L 7.25 -1.15625 L 10.78125 -1.15625 C 12.082031 -1.15625 13.175781 -1.53125 14.0625 -2.28125 C 14.957031 -3.039062 15.625 -4.113281 16.0625 -5.5 L 16.328125 -5.5 L 15.078125 0 L 1.125 0 L 1.125 -0.265625 Z M 1.484375 -0.265625 "/></g></g><g style="fill:#000000;fill-opacity:1;"><g transform="translate(140.326437, 23.577083)"><path style="stroke:none" d="M 8.5625 -17.671875 L 7.40625 -17.671875 C 7.375 -17.671875 7.347656 -17.671875 7.328125 -17.671875 L 7.328125 -1.96875 C 7.347656 -1.5 7.519531 -1.097656 7.84375 -0.765625 C 8.175781 -0.429688 8.578125 -0.265625 9.046875 -0.265625 L 9.40625 -0.265625 L 9.40625 0 L 1.21875 0 L 1.21875 -0.265625 L 1.5625 -0.265625 C 2.207031 -0.265625 2.703125 -0.546875 3.046875 -1.109375 C 3.191406 -1.359375 3.269531 -1.632812 3.28125 -1.9375 L 3.28125 -16.890625 C 3.269531 -17.359375 3.097656 -17.757812 2.765625 -18.09375 C 2.429688 -18.425781 2.03125 -18.59375 1.5625 -18.59375 L 1.21875 -18.59375 L 1.21875 -18.859375 L 10.453125 -18.859375 C 12.191406 -18.859375 13.664062 -18.476562 14.875 -17.71875 C 15.476562 -17.34375 15.957031 -16.816406 16.3125 -16.140625 C 16.675781 -15.472656 16.859375 -14.59375 16.859375 -13.5 C 16.859375 -12.414062 16.476562 -11.367188 15.71875 -10.359375 C 14.96875 -9.359375 13.875 -8.785156 12.4375 -8.640625 C 13.476562 -8.304688 14.394531 -7.519531 15.1875 -6.28125 C 17.132812 -3.164062 18.570312 -1.316406 19.5 -0.734375 C 19.96875 -0.441406 20.550781 -0.285156 21.25 -0.265625 L 21.25 0 L 18.609375 0 C 17.046875 0 15.75 -0.203125 14.71875 -0.609375 C 13.6875 -1.023438 12.875 -1.753906 12.28125 -2.796875 C 11.9375 -3.390625 11.191406 -4.925781 10.046875 -7.40625 C 9.546875 -8.5 8.9375 -9.101562 8.21875 -9.21875 L 8.21875 -9.484375 L 9.046875 -9.484375 C 9.859375 -9.484375 10.570312 -9.722656 11.1875 -10.203125 C 11.8125 -10.691406 12.226562 -11.484375 12.4375 -12.578125 C 12.507812 -12.953125 12.546875 -13.25 12.546875 -13.46875 C 12.546875 -14.9375 12.25 -16 11.65625 -16.65625 C 11.070312 -17.3125 10.3125 -17.648438 9.375 -17.671875 C 9.195312 -17.671875 8.925781 -17.671875 8.5625 -17.671875 Z M 8.5625 -17.671875 "/></g></g><g style="fill:#000000;fill-opacity:1;"><g transform="translate(32.113044, 42.345443)"><path style="stroke:none" d="M 5.25 -4.765625 C 5.25 -4.203125 5.054688 -3.734375 4.671875 -3.359375 C 4.285156 -2.992188 3.703125 -2.8125 2.921875 -2.8125 L 1.625 -2.8125 L 1.625 0 L 0.75 0 L 0.75 -6.734375 L 2.921875 -6.734375 C 3.679688 -6.734375 4.257812 -6.546875 4.65625 -6.171875 C 5.050781 -5.804688 5.25 -5.335938 5.25 -4.765625 Z M 2.921875 -3.53125 C 3.410156 -3.53125 3.769531 -3.632812 4 -3.84375 C 4.226562 -4.0625 4.34375 -4.367188 4.34375 -4.765625 C 4.34375 -5.585938 3.867188 -6 2.921875 -6 L 1.625 -6 L 1.625 -3.53125 Z M 2.921875 -3.53125 "/></g></g><g style="fill:#000000;fill-opacity:1;"><g transform="translate(45.423005, 42.345443)"><path style="stroke:none" d="M 1.625 -6.015625 L 1.625 -3.765625 L 4.078125 -3.765625 L 4.078125 -3.046875 L 1.625 -3.046875 L 1.625 -0.71875 L 4.359375 -0.71875 L 4.359375 0 L 0.75 0 L 0.75 -6.734375 L 4.359375 -6.734375 L 4.359375 -6.015625 Z M 1.625 -6.015625 "/></g></g><g style="fill:#000000;fill-opacity:1;"><g transform="translate(58.096032, 42.345443)"><path style="stroke:none" d="M 4.28125 0 L 2.6875 -2.75 L 1.625 -2.75 L 1.625 0 L 0.75 0 L 0.75 -6.734375 L 2.921875 -6.734375 C 3.421875 -6.734375 3.847656 -6.644531 4.203125 -6.46875 C 4.554688 -6.289062 4.816406 -6.054688 4.984375 -5.765625 C 5.160156 -5.472656 5.25 -5.132812 5.25 -4.75 C 5.25 -4.289062 5.113281 -3.882812 4.84375 -3.53125 C 4.582031 -3.175781 4.1875 -2.9375 3.65625 -2.8125 L 5.34375 0 Z M 1.625 -3.453125 L 2.921875 -3.453125 C 3.390625 -3.453125 3.742188 -3.566406 3.984375 -3.796875 C 4.222656 -4.035156 4.34375 -4.351562 4.34375 -4.75 C 4.34375 -5.144531 4.222656 -5.453125 3.984375 -5.671875 C 3.753906 -5.890625 3.398438 -6 2.921875 -6 L 1.625 -6 Z M 1.625 -3.453125 "/></g></g><g style="fill:#000000;fill-opacity:1;"><g transform="translate(71.685866, 42.345443)"><path style="stroke:none" d="M 4.546875 -6.734375 L 4.546875 -6.015625 L 1.625 -6.015625 L 1.625 -3.75 L 4 -3.75 L 4 -3.03125 L 1.625 -3.03125 L 1.625 0 L 0.75 0 L 0.75 -6.734375 Z M 4.546875 -6.734375 "/></g></g><g style="fill:#000000;fill-opacity:1;"><g transform="translate(84.272036, 42.345443)"><path style="stroke:none" d="M 1.609375 -6.734375 L 1.609375 -2.46875 C 1.609375 -1.875 1.753906 -1.429688 2.046875 -1.140625 C 2.335938 -0.847656 2.742188 -0.703125 3.265625 -0.703125 C 3.773438 -0.703125 4.175781 -0.847656 4.46875 -1.140625 C 4.769531 -1.429688 4.921875 -1.875 4.921875 -2.46875 L 4.921875 -6.734375 L 5.796875 -6.734375 L 5.796875 -2.484375 C 5.796875 -1.921875 5.679688 -1.445312 5.453125 -1.0625 C 5.234375 -0.6875 4.929688 -0.40625 4.546875 -0.21875 C 4.160156 -0.03125 3.726562 0.0625 3.25 0.0625 C 2.78125 0.0625 2.351562 -0.03125 1.96875 -0.21875 C 1.582031 -0.40625 1.273438 -0.6875 1.046875 -1.0625 C 0.828125 -1.445312 0.71875 -1.921875 0.71875 -2.484375 L 0.71875 -6.734375 Z M 1.609375 -6.734375 "/></g></g><g style="fill:#000000;fill-opacity:1;"><g transform="translate(98.508457, 42.345443)"><path style="stroke:none" d="M 7.578125 -6.6875 L 7.578125 0 L 6.6875 0 L 6.6875 -4.984375 L 4.46875 0 L 3.859375 0 L 1.625 -5 L 1.625 0 L 0.75 0 L 0.75 -6.6875 L 1.6875 -6.6875 L 4.15625 -1.15625 L 6.640625 -6.6875 Z M 7.578125 -6.6875 "/></g></g><g style="fill:#000000;fill-opacity:1;"><g transform="translate(114.539885, 42.345443)"><path style="stroke:none" d="M 1.625 -6.015625 L 1.625 -3.765625 L 4.078125 -3.765625 L 4.078125 -3.046875 L 1.625 -3.046875 L 1.625 -0.71875 L 4.359375 -0.71875 L 4.359375 0 L 0.75 0 L 0.75 -6.734375 L 4.359375 -6.734375 L 4.359375 -6.015625 Z M 1.625 -6.015625 "/></g></g><g style="fill:#000000;fill-opacity:1;"><g transform="translate(127.212911, 42.345443)"><path style="stroke:none" d="M 2.875 0.0625 C 2.4375 0.0625 2.039062 -0.015625 1.6875 -0.171875 C 1.332031 -0.328125 1.054688 -0.546875 0.859375 -0.828125 C 0.660156 -1.109375 0.554688 -1.429688 0.546875 -1.796875 L 1.484375 -1.796875 C 1.515625 -1.484375 1.644531 -1.21875 1.875 -1 C 2.101562 -0.78125 2.4375 -0.671875 2.875 -0.671875 C 3.289062 -0.671875 3.617188 -0.773438 3.859375 -0.984375 C 4.109375 -1.191406 4.234375 -1.460938 4.234375 -1.796875 C 4.234375 -2.054688 4.160156 -2.265625 4.015625 -2.421875 C 3.867188 -2.585938 3.691406 -2.710938 3.484375 -2.796875 C 3.273438 -2.878906 2.988281 -2.96875 2.625 -3.0625 C 2.175781 -3.175781 1.816406 -3.289062 1.546875 -3.40625 C 1.285156 -3.519531 1.0625 -3.703125 0.875 -3.953125 C 0.6875 -4.203125 0.59375 -4.535156 0.59375 -4.953125 C 0.59375 -5.316406 0.6875 -5.640625 0.875 -5.921875 C 1.0625 -6.210938 1.320312 -6.429688 1.65625 -6.578125 C 1.988281 -6.734375 2.375 -6.8125 2.8125 -6.8125 C 3.445312 -6.8125 3.960938 -6.65625 4.359375 -6.34375 C 4.765625 -6.03125 4.992188 -5.613281 5.046875 -5.09375 L 4.078125 -5.09375 C 4.046875 -5.34375 3.910156 -5.566406 3.671875 -5.765625 C 3.441406 -5.960938 3.128906 -6.0625 2.734375 -6.0625 C 2.367188 -6.0625 2.066406 -5.96875 1.828125 -5.78125 C 1.597656 -5.59375 1.484375 -5.328125 1.484375 -4.984375 C 1.484375 -4.734375 1.550781 -4.53125 1.6875 -4.375 C 1.832031 -4.226562 2.003906 -4.113281 2.203125 -4.03125 C 2.410156 -3.945312 2.695312 -3.851562 3.0625 -3.75 C 3.507812 -3.632812 3.863281 -3.515625 4.125 -3.390625 C 4.394531 -3.273438 4.628906 -3.09375 4.828125 -2.84375 C 5.023438 -2.59375 5.125 -2.253906 5.125 -1.828125 C 5.125 -1.503906 5.035156 -1.195312 4.859375 -0.90625 C 4.679688 -0.613281 4.421875 -0.378906 4.078125 -0.203125 C 3.742188 -0.0234375 3.34375 0.0625 2.875 0.0625 Z M 2.875 0.0625 "/></g></g></g></svg>